<svg width="31" height="29" viewBox="0 0 31 29" fill="none" xmlns="http://www.w3.org/2000/svg">
<path d="M26.6228 3.23145L17.2537 9.95806L18.9862 5.98945L26.6228 3.23145Z" fill="#E2761B" stroke="#E2761B" stroke-linecap="round" stroke-linejoin="round"/>
<path d="M4.99377 3.23145L14.2876 10.0218L12.6397 5.98945L4.99377 3.23145ZM23.2518 18.8237L20.7565 22.5193L26.0955 23.9392L27.6303 18.9056L23.2518 18.8237ZM4.00507 18.9056L5.53049 23.9392L10.8695 22.5193L8.37418 18.8237L4.00507 18.9056Z" fill="#E4761B" stroke="#E4761B" stroke-linecap="round" stroke-linejoin="round"/>
<path d="M10.5682 12.5792L9.08041 14.7547L14.3817 14.9822L14.1934 9.47534L10.5682 12.5792ZM21.0484 12.5792L17.3761 9.41162L17.2537 14.9822L22.5456 14.7547L21.0484 12.5792ZM10.8695 22.519L14.0522 21.0171L11.3026 18.9418L10.8695 22.519ZM17.5644 21.0171L20.7565 22.519L20.3139 18.9418L17.5644 21.0171Z" fill="#E4761B" stroke="#E4761B" stroke-linecap="round" stroke-linejoin="round"/>
<path d="M20.7565 22.519L17.5644 21.0171L17.8186 23.0287L17.7904 23.8752L20.7565 22.519ZM10.8695 22.519L13.8356 23.8752L13.8167 23.0287L14.0522 21.0171L10.8695 22.519Z" fill="#D7C1B3" stroke="#D7C1B3" stroke-linecap="round" stroke-linejoin="round"/>
<path d="M13.8827 17.6131L11.2273 16.8576L13.1011 16.0293L13.8827 17.6131ZM17.7339 17.6131L18.5154 16.0293L20.3987 16.8576L17.7339 17.6131Z" fill="#233447" stroke="#233447" stroke-linecap="round" stroke-linejoin="round"/>
<path d="M10.8695 22.5192L11.3215 18.8236L8.37421 18.9055L10.8695 22.5192ZM20.3045 18.8236L20.7565 22.5192L23.2518 18.9055L20.3045 18.8236ZM22.5456 14.7549L17.2537 14.9824L17.7433 17.613L18.5249 16.0292L20.4081 16.8575L22.5456 14.7549ZM11.2273 16.8575L13.1106 16.0292L13.8827 17.613L14.3817 14.9824L9.08042 14.7549L11.2273 16.8575Z" fill="#CD6116" stroke="#CD6116" stroke-linecap="round" stroke-linejoin="round"/>
<path d="M9.08041 14.7549L11.3026 18.942L11.2273 16.8575L9.08041 14.7549ZM20.4081 16.8575L20.3139 18.942L22.5456 14.7549L20.4081 16.8575ZM14.3817 14.9824L13.8827 17.613L14.5041 20.7169L14.6454 16.63L14.3817 14.9824ZM17.2537 14.9824L16.9994 16.6209L17.1124 20.7169L17.7433 17.613L17.2537 14.9824Z" fill="#E4751F" stroke="#E4751F" stroke-linecap="round" stroke-linejoin="round"/>
<path d="M17.7433 17.6129L17.1124 20.7168L17.5644 21.0172L20.3139 18.9419L20.4081 16.8574L17.7433 17.6129ZM11.2273 16.8574L11.3026 18.9419L14.0522 21.0172L14.5041 20.7168L13.8827 17.6129L11.2273 16.8574Z" fill="#F6851B" stroke="#F6851B" stroke-linecap="round" stroke-linejoin="round"/>
<path d="M17.7904 23.8753L17.8186 23.0288L17.5832 22.8285H14.0333L13.8167 23.0288L13.8356 23.8753L10.8695 22.519L11.9053 23.3383L14.0051 24.7491H17.6115L19.7207 23.3383L20.7565 22.519L17.7904 23.8753Z" fill="#C0AD9E" stroke="#C0AD9E" stroke-linecap="round" stroke-linejoin="round"/>
<path d="M17.5644 21.0172L17.1124 20.7168H14.5041L14.0521 21.0172L13.8167 23.0288L14.0333 22.8285H17.5832L17.8186 23.0288L17.5644 21.0172Z" fill="#161616" stroke="#161616" stroke-linecap="round" stroke-linejoin="round"/>
<path d="M27.0183 10.395L27.8186 6.68123L26.6228 3.23145L17.5644 9.7305L21.0484 12.5795L25.9731 13.9722L27.0653 12.7434L26.5945 12.4157L27.3478 11.7512L26.764 11.3143L27.5173 10.7591L27.0183 10.395ZM3.80734 6.68123L4.60772 10.395L4.09924 10.7591L4.85254 11.3143L4.27815 11.7512L5.03145 12.4157L4.56064 12.7434L5.6435 13.9722L10.5682 12.5795L14.0522 9.7305L4.99378 3.23145L3.80734 6.68123Z" fill="#763D16" stroke="#763D16" stroke-linecap="round" stroke-linejoin="round"/>
<path d="M25.9731 13.972L21.0484 12.5793L22.5456 14.7548L20.3139 18.9419L23.2518 18.9055H27.6303L25.9731 13.972ZM10.5682 12.5793L5.64348 13.972L4.00507 18.9055H8.37418L11.3026 18.9419L9.0804 14.7548L10.5682 12.5793ZM17.2537 14.9824L17.5644 9.73031L18.9956 5.98926H12.6397L14.0521 9.73031L14.3817 14.9824L14.4947 16.639L14.5041 20.7168H17.1124L17.1312 16.639L17.2537 14.9824Z" fill="#F6851B" stroke="#F6851B" stroke-linecap="round" stroke-linejoin="round"/>
</svg>
